<?xml version="1.0" encoding="utf-8"?>
<!-- Generator: Adobe Illustrator 16.0.0, SVG Export Plug-In . SVG Version: 6.00 Build 0)  -->
<!DOCTYPE svg PUBLIC "-//W3C//DTD SVG 1.1//EN" "http://www.w3.org/Graphics/SVG/1.1/DTD/svg11.dtd">
<svg version="1.1" id="Layer_1" xmlns="http://www.w3.org/2000/svg" xmlns:xlink="http://www.w3.org/1999/xlink" x="0px" y="0px"
	 width="45px" height="45px" viewBox="0 0 45 45" enable-background="new 0 0 45 45" xml:space="preserve">
<path fill-rule="evenodd" clip-rule="evenodd" fill="#FFFFFF" d="M23.276,34.561h-1.608V23.305H10.412v-1.607h11.256V10.44h1.608
	v11.257h11.256v1.607H23.276V34.561z M22.472,1.801c-11.412,0-20.7,9.288-20.7,20.699c0,11.412,9.289,20.701,20.7,20.701
	s20.7-9.289,20.7-20.701C43.172,11.089,33.884,1.801,22.472,1.801z M22.472,45c-12.42,0-22.5-10.08-22.5-22.5S10.052,0,22.472,0
	c12.42,0,22.5,10.08,22.5,22.5S34.893,45,22.472,45z"/>
</svg>
